<svg width="40" height="32" viewBox="0 0 40 32" fill="none" xmlns="http://www.w3.org/2000/svg">
<g clipPath="url(#clip0_3131_14516)">
<path d="M21.5865 29.6835C21.5861 30.107 21.4379 30.5173 21.1673 30.8444C20.8967 31.1715 20.5204 31.3952 20.1025 31.4773C19.6846 31.5595 19.2509 31.495 18.8755 31.2949C18.5 31.0948 18.206 30.7714 18.0435 30.3799C17.881 29.9884 17.8601 29.553 17.9843 29.1479C18.1086 28.7428 18.3703 28.3931 18.7249 28.1583C19.0794 27.9236 19.5049 27.8183 19.9288 27.8605C20.3527 27.9027 20.7487 28.0897 21.0494 28.3897C21.2208 28.5592 21.3564 28.7609 21.4486 28.983C21.5408 29.2051 21.5877 29.4432 21.5865 29.6835Z" fill="#FA5A2A"/>
<path d="M30.7818 29.6835C30.7814 30.107 30.6332 30.5173 30.3626 30.8444C30.092 31.1715 29.7157 31.3952 29.2978 31.4773C28.8799 31.5595 28.4463 31.495 28.0708 31.2949C27.6954 31.0948 27.4013 30.7714 27.2388 30.3799C27.0763 29.9884 27.0554 29.553 27.1796 29.1479C27.3039 28.7428 27.5656 28.3931 27.9202 28.1583C28.2747 27.9236 28.7002 27.8183 29.1241 27.8605C29.548 27.9027 29.944 28.0897 30.2448 28.3897C30.4161 28.5592 30.5518 28.7609 30.6439 28.983C30.7361 29.2051 30.783 29.4432 30.7818 29.6835Z" fill="#FA5A2A"/>
<path d="M39.2503 12.1054L36.063 7.54245H32.891L36.8972 13.2781C37.0909 13.553 37.184 13.8857 37.1609 14.2205C37.1377 14.5554 36.9998 14.8723 36.7701 15.1183C36.531 15.3809 36.2027 15.5466 35.8482 15.5836L11.3834 15.5934L8.68125 11.7014H5.33203L15.6938 26.6297H29.6528C33.0056 26.6297 34.9756 22.8836 33.062 20.1465L31.971 18.5885H35.8402C39.193 18.5885 41.1639 14.8415 39.2503 12.1054ZM29.6609 23.6292C29.6322 23.6292 16.9362 23.639 16.9362 23.639L13.4724 18.6294H28.8276L30.7072 21.3229C30.8533 21.5322 30.9424 21.7755 30.9658 22.0292C30.9892 22.2829 30.9461 22.5383 30.8408 22.7705C30.7354 23.0028 30.5714 23.2039 30.3646 23.3544C30.1578 23.5049 29.9154 23.5996 29.6609 23.6292Z" fill="#FA5A2A"/>
<path d="M26.3799 10.5847L29.0928 14.4731H25.9226L24.5916 12.5672C24.1638 11.9554 23.5934 11.4556 22.9291 11.1104C22.2649 10.7652 21.5265 10.5848 20.777 10.5847H4.55002L4.51959 10.5402L2.42969 7.54867C9.1684 7.54867 29.8357 7.54333 31.5237 7.54867L33.6512 10.5847H26.3799Z" fill="#FA5A2A"/>
<path d="M5.05052 6.4284H1.69951L0.714967 5.01806C-1.00081 2.38245 0.90203 0.489838 0.90203 0.489838L5.05052 6.4284Z" fill="#FA5A2A"/>
</g>
<defs>
<clipPath id="clip0_3131_14516">
<rect width="40" height="31.0204" fill="white" transform="translate(0 0.489807)"/>
</clipPath>
</defs>
</svg>
